<?xml version="1.0" encoding="utf-8"?>
<!-- Generator: Adobe Illustrator 12.0.0, SVG Export Plug-In . SVG Version: 6.00 Build 51448)  -->
<!DOCTYPE svg PUBLIC "-//W3C//DTD SVG 1.1//EN" "http://www.w3.org/Graphics/SVG/1.1/DTD/svg11.dtd" [
	<!ENTITY ns_svg "http://www.w3.org/2000/svg">
	<!ENTITY ns_xlink "http://www.w3.org/1999/xlink">
]>
<svg  version="1.1" id="レイヤー_1" xmlns="&ns_svg;" xmlns:xlink="&ns_xlink;" width="289.983" height="289.982"
	 viewBox="0 0 289.983 289.982" overflow="visible" enable-background="new 0 0 289.983 289.982" xml:space="preserve">
<circle cx="144.992" cy="144.992" r="144.992"/>
<circle fill="#FFFFFF" cx="145.276" cy="144.226" r="131.973"/>
<path fill="#040000" d="M57.885,113.7c0.251-0.366,0.666-1.027,1-1.319c40.282-35.264,57.025-89.718,57.025-89.718
	s7.053,4.515,16.323,11.253c9.271,6.739-4.899,10.332-4.899,10.332l-3.145,4.533l32.063-0.005c0,0,5.305-8.048,5.618-8.048
	c0.311,0.001,1.346,0.958,10.534,10.214c9.189,9.257-4.969,11.843-4.969,11.843l-9.869,16.201l20.667-0.256
	c0,0,1.1,0.429,5.381-6.487c1.105-1.787,1.042,0.447,11.252,9.125c10.209,8.677-0.852,11.742-0.852,11.742v47.645
	c0,0-3.403,4.594-8.337,6.807c-4.936,2.212-6.637-5.955-6.637-5.955v-2.554h-32.841v11.742h39.986l6.468-7.147
	c0,0,8.507,8.337,11.74,11.231c3.233,2.893,0,6.465,0,6.465l-3.233,2.724v49.004c0,0-5.444,5.787-8.677,7.659
	c-3.233,1.871-6.127-4.083-6.127-4.083v-4.086h-40.328v18.036c0,0,56.835,0,64.151,0s6.637-19.964,9.019-29.493
	c2.382-9.527,6.636,0.171,6.636,0.171s1.362,26.459,1.532,27.821c0.169,1.361,0.996,2.76,2.979,4.861
	c2.643,2.803,2.459,5.829,0.912,8.644c-1.877,3.419-7.636,4.845-7.636,4.845s-72.828,0-82.527,0s-10.38-8.168-10.38-8.168v-26.717
	H91.62v8.722c0,0-5.487,4.593-9.401,6.807c-3.914,2.212-5.105-3.476-5.388-6.735c-0.284-3.263-0.056-80.685-0.056-80.685
	l14.729,10.135l39.041-0.01v-12.253h-27.226v4.765c0,0-5.446,6.125-9.528,6.806c-4.084,0.682-5.276-4.935-5.276-5.105
	c0-0.169,0-44.241,0-44.241s-19.568,15.93-21.398,17.398c-0.821,0.66-3.856,2.915-4.849,3.233
	C54.695,123.824,54.397,118.783,57.885,113.7z"/>
<rect x="92.258" y="188.061" fill="#FFFFFF" width="38.457" height="11.569"/>
<rect x="92.258" y="163.046" fill="#FFFFFF" width="38.287" height="11.57"/>
<rect x="146.028" y="162.875" fill="#FFFFFF" width="40.499" height="11.572"/>
<rect x="146.028" y="188.061" fill="#FFFFFF" width="40.499" height="11.569"/>
<rect x="146.156" y="91.067" fill="#FFFFFF" width="33.055" height="11.571"/>
<rect x="146.199" y="115.06" fill="#FFFFFF" width="33.012" height="11.572"/>
<rect x="103.318" y="114.89" fill="#FFFFFF" width="27.226" height="11.571"/>
<rect x="103.318" y="91.067" fill="#FFFFFF" width="27.226" height="11.571"/>
<path fill="#FFFFFF" d="M117.74,60.269c0,0-1.044,1.266-5.821,8.757c-3.252,5.102-6.018,8.813-6.018,8.813h39.872l6.85-17.356
	L117.74,60.269z"/>
</svg>
